<?xml version="1.0" standalone="no"?>
<!DOCTYPE svg PUBLIC "-//W3C//DTD SVG 20010904//EN"
 "http://www.w3.org/TR/2001/REC-SVG-20010904/DTD/svg10.dtd">
<svg version="1.0" xmlns="http://www.w3.org/2000/svg"
 width="570.000000pt" height="242.000000pt" viewBox="0 0 570.000000 242.000000"
 preserveAspectRatio="xMidYMid meet">

<g transform="translate(0.000000,242.000000) scale(0.100000,-0.100000)"
fill="#000000" stroke="none">
<path d="M1340 1140 l0 -450 1590 0 1590 0 0 450 0 450 -1590 0 -1590 0 0
-450z m3118 -2 l-3 -383 -1165 0 -1165 0 -3 383 -2 382 1170 0 1170 0 -2 -382z
m-2571 255 c123 -62 104 -281 -36 -435 -80 -87 -180 -130 -265 -114 -74 14
-86 60 -28 115 33 31 39 45 50 110 14 81 55 213 78 249 11 17 24 22 59 22 24
0 46 -4 50 -9 3 -6 -8 -32 -24 -58 -32 -53 -95 -184 -106 -222 -8 -25 -9 -25
43 -4 27 11 10 -17 -22 -37 -38 -23 -51 -49 -41 -80 4 -14 1 -22 -11 -27 -10
-4 -19 -2 -22 5 -6 18 -19 14 -25 -8 -20 -78 148 17 218 123 77 117 108 266
66 318 -17 21 -28 24 -88 24 -80 -1 -155 -34 -197 -87 l-26 -33 -20 25 c-50
64 -12 109 125 144 45 11 185 -2 222 -21z"/>
<path d="M2702 1210 c-6 -14 -26 -60 -46 -102 -27 -59 -32 -78 -21 -78 9 0 15
10 15 25 0 28 22 41 63 39 31 -1 47 -17 47 -46 0 -12 8 -18 24 -18 l23 0 -29
63 c-72 156 -65 145 -76 117z m28 -87 c0 -8 -12 -13 -30 -13 l-31 0 17 32 c16
30 17 31 30 13 8 -10 14 -25 14 -32z"/>
<path d="M2917 1212 c-29 -32 -21 -58 33 -96 54 -39 58 -47 34 -70 -21 -22
-31 -20 -59 9 l-25 24 0 -23 c0 -19 7 -24 36 -29 42 -7 68 4 84 34 15 27 -5
58 -54 84 -43 23 -53 45 -30 62 24 18 30 17 54 -9 20 -22 20 -22 20 -1 0 15
-8 22 -31 27 -43 8 -44 8 -62 -12z"/>
<path d="M4041 1153 c-18 -43 -39 -88 -47 -100 -11 -18 -12 -23 -2 -23 7 0 20
15 28 32 13 27 20 32 50 32 31 0 36 -4 45 -32 7 -24 15 -32 32 -32 21 0 21 2
-19 93 -22 50 -44 96 -48 100 -4 4 -21 -27 -39 -70z m46 -13 c11 -29 10 -30
-18 -30 -33 0 -33 0 -17 35 15 32 21 32 35 -5z"/>
<path d="M2345 1125 l0 -95 63 0 c57 0 67 3 93 29 42 42 41 99 -2 135 -26 22
-40 26 -92 26 l-62 0 0 -95z m123 65 c29 -27 37 -64 22 -101 -15 -35 -37 -49
-79 -49 l-31 0 0 78 c0 43 3 82 7 85 13 14 60 6 81 -13z"/>
<path d="M3128 1125 c-3 -92 -2 -95 19 -95 19 0 21 4 16 38 -6 46 12 65 59 60
32 -3 33 -4 33 -51 0 -40 3 -47 20 -47 19 0 20 7 20 95 0 89 -1 95 -20 95 -18
0 -20 -5 -17 -41 l4 -40 -48 3 -49 3 1 38 c1 29 -2 37 -17 37 -15 0 -18 -11
-21 -95z"/>
<path d="M3420 1125 c0 -84 2 -95 18 -95 15 0 17 11 17 95 0 84 -2 95 -17 95
-16 0 -18 -11 -18 -95z"/>
<path d="M3744 1173 c13 -27 31 -69 41 -95 10 -27 21 -48 24 -48 4 0 19 35 35
78 16 42 33 81 38 87 12 14 10 25 -7 25 -8 0 -15 -8 -15 -17 0 -24 -32 -113
-41 -113 -8 0 -49 97 -49 116 0 8 -10 14 -24 14 l-24 0 22 -47z"/>
<path d="M3570 1095 c0 -12 8 -16 33 -13 17 2 32 8 32 13 0 6 -15 11 -32 13
-25 3 -33 -1 -33 -13z"/>
</g>
</svg>
